{
	"asset":{
		"generator":"Khronos glTF Blender I/O v5.1.19",
		"version":"2.0"
	},
	"scene":0,
	"scenes":[
		{
			"name":"Scene",
			"nodes":[
				0,
				1,
				2
			]
		}
	],
	"nodes":[
		{
			"mesh":0,
			"name":"console"
		},
		{
			"mesh":1,
			"name":"screen"
		},
		{
			"mesh":2,
			"name":"keyboard"
		}
	],
	"materials":[
		{
			"doubleSided":true,
			"emissiveFactor":[
				1,
				1,
				1
			],
			"emissiveTexture":{
				"index":0
			},
			"name":"console",
			"pbrMetallicRoughness":{
				"baseColorTexture":{
					"index":1
				},
				"metallicRoughnessTexture":{
					"index":2
				}
			}
		},
		{
			"doubleSided":true,
			"emissiveFactor":[
				1,
				1,
				1
			],
			"emissiveTexture":{
				"index":3
			},
			"name":"Material",
			"pbrMetallicRoughness":{
				"baseColorTexture":{
					"index":4
				},
				"metallicFactor":0.75,
				"roughnessFactor":0.25
			}
		},
		{
			"alphaMode":"BLEND",
			"doubleSided":true,
			"name":"keyboard_D",
			"normalTexture":{
				"index":5
			},
			"pbrMetallicRoughness":{
				"baseColorTexture":{
					"index":6
				},
				"metallicFactor":0
			}
		}
	],
	"meshes":[
		{
			"name":"Cube.001",
			"primitives":[
				{
					"attributes":{
						"POSITION":0,
						"NORMAL":1,
						"TEXCOORD_0":2
					},
					"indices":3,
					"material":0
				}
			]
		},
		{
			"name":"Cube.012",
			"primitives":[
				{
					"attributes":{
						"POSITION":4,
						"NORMAL":5,
						"TEXCOORD_0":6
					},
					"indices":7,
					"material":1
				}
			]
		},
		{
			"name":"keyboard_D",
			"primitives":[
				{
					"attributes":{
						"POSITION":8,
						"NORMAL":9,
						"TEXCOORD_0":10
					},
					"indices":11,
					"material":2
				}
			]
		}
	],
	"textures":[
		{
			"sampler":0,
			"source":0
		},
		{
			"sampler":0,
			"source":1
		},
		{
			"sampler":0,
			"source":2
		},
		{
			"sampler":0,
			"source":3
		},
		{
			"sampler":0,
			"source":3
		},
		{
			"sampler":0,
			"source":4
		},
		{
			"sampler":1,
			"source":5
		}
	],
	"images":[
		{
			"mimeType":"image/jpeg",
			"name":"gltf_chad_console_fromPaint_emission",
			"uri":"tex/gltf_chad_console_fromPaint_emission.jpg"
		},
		{
			"mimeType":"image/png",
			"name":"blender_chad_console_fromPaint_diffuse",
			"uri":"tex/blender_chad_console_fromPaint_diffuse.png"
		},
		{
			"mimeType":"image/png",
			"name":"blender_chad_console_fromPaint_metalness-blender_chad_console_fromPaint_roughness",
			"uri":"tex/blender_chad_console_fromPaint_metalness-blender_chad_console_fromPaint_roughness.png"
		},
		{
			"mimeType":"image/png",
			"name":"display",
			"uri":"tex/display.png"
		},
		{
			"mimeType":"image/png",
			"name":"keyboard_N",
			"uri":"tex/keyboard_N.png"
		},
		{
			"mimeType":"image/png",
			"name":"keyboard_D",
			"uri":"tex/keyboard_D.png"
		}
	],
	"accessors":[
		{
			"bufferView":0,
			"componentType":5126,
			"count":10743,
			"max":[
				1.0222870111465454,
				3.0747828483581543,
				1.3543965816497803
			],
			"min":[
				-1.055001139640808,
				-0.0666738748550415,
				-0.508560299873352
			],
			"type":"VEC3"
		},
		{
			"bufferView":1,
			"componentType":5126,
			"count":10743,
			"type":"VEC3"
		},
		{
			"bufferView":2,
			"componentType":5126,
			"count":10743,
			"type":"VEC2"
		},
		{
			"bufferView":3,
			"componentType":5123,
			"count":37524,
			"type":"SCALAR"
		},
		{
			"bufferView":4,
			"componentType":5126,
			"count":81,
			"max":[
				0.38436198234558105,
				2.2269465923309326,
				0.9403184056282043
			],
			"min":[
				-0.38436198234558105,
				1.588159441947937,
				0.8429685831069946
			],
			"type":"VEC3"
		},
		{
			"bufferView":5,
			"componentType":5126,
			"count":81,
			"type":"VEC3"
		},
		{
			"bufferView":6,
			"componentType":5126,
			"count":81,
			"type":"VEC2"
		},
		{
			"bufferView":7,
			"componentType":5123,
			"count":384,
			"type":"SCALAR"
		},
		{
			"bufferView":8,
			"componentType":5126,
			"count":4,
			"max":[
				0.2473568320274353,
				1.1538945436477661,
				1.279079794883728
			],
			"min":[
				-0.2473568320274353,
				1.1538945436477661,
				1.0360625982284546
			],
			"type":"VEC3"
		},
		{
			"bufferView":9,
			"componentType":5126,
			"count":4,
			"type":"VEC3"
		},
		{
			"bufferView":10,
			"componentType":5126,
			"count":4,
			"type":"VEC2"
		},
		{
			"bufferView":11,
			"componentType":5123,
			"count":6,
			"type":"SCALAR"
		}
	],
	"bufferViews":[
		{
			"buffer":0,
			"byteLength":128916,
			"byteOffset":0,
			"target":34962
		},
		{
			"buffer":0,
			"byteLength":128916,
			"byteOffset":128916,
			"target":34962
		},
		{
			"buffer":0,
			"byteLength":85944,
			"byteOffset":257832,
			"target":34962
		},
		{
			"buffer":0,
			"byteLength":75048,
			"byteOffset":343776,
			"target":34963
		},
		{
			"buffer":0,
			"byteLength":972,
			"byteOffset":418824,
			"target":34962
		},
		{
			"buffer":0,
			"byteLength":972,
			"byteOffset":419796,
			"target":34962
		},
		{
			"buffer":0,
			"byteLength":648,
			"byteOffset":420768,
			"target":34962
		},
		{
			"buffer":0,
			"byteLength":768,
			"byteOffset":421416,
			"target":34963
		},
		{
			"buffer":0,
			"byteLength":48,
			"byteOffset":422184,
			"target":34962
		},
		{
			"buffer":0,
			"byteLength":48,
			"byteOffset":422232,
			"target":34962
		},
		{
			"buffer":0,
			"byteLength":32,
			"byteOffset":422280,
			"target":34962
		},
		{
			"buffer":0,
			"byteLength":12,
			"byteOffset":422312,
			"target":34963
		}
	],
	"samplers":[
		{
			"magFilter":9729,
			"minFilter":9987
		},
		{
			"magFilter":9729,
			"minFilter":9987,
			"wrapS":33071,
			"wrapT":33071
		}
	],
	"buffers":[
		{
			"byteLength":422324,
			"uri":"chad_console.bin"
		}
	]
}
